REM MD5 14f5b8895f1b8586f4b11b6628ed520e
FILE "Euro Demo 44 (Europe).bin" BINARY
  TRACK 01 MODE2/2352
    INDEX 01 00:00:00
  TRACK 02 AUDIO
    INDEX 00 24:21:04
    INDEX 01 24:23:04
  TRACK 03 AUDIO
    INDEX 00 27:47:47
    INDEX 01 27:49:47
  TRACK 04 AUDIO
    INDEX 00 30:10:38
    INDEX 01 30:12:38
REM LEADOUT 33:13:70
